<svg xmlns="http://www.w3.org/2000/svg" viewBox="0 0 100 100">
  <style type="text/css">.cls-0 {fill:#010101;}
.cls-1 {fill:#FFFFFF;}</style>
  <rect class="cls-0" x="2" y="1.8" width="96.5" height="96.7"/>
  <path class="cls-1" d="m18.9 19.3 5.3 8.3 0.9 3.8 4.3 4 1.1 4.3 4.7 3.6 1.1 3.7 6.4 5.5-3.6 4.5-5.6 2.7-6.1 2.7 2.7 7 7.5 1.6 6.1-7.7 7.4-2.2 3.4 3.8 3.9 1.2 2.4 3.5 3.3 1 2.5 3.3 3 0.7 2.9 2.4 8.3 3.7-8.9-23.4-8.4-7.7 4.4-6.1c1.1-1.7 5.6-3.7 5.6-3.7-1.2-0.7-4.2-0.7-5-1.1-1.9-1-4.2-0.5-5.7-0.3l-6.7 3.5-9.4-11.4-14.6-5.8-13.2-5.4z"/>
</svg>
