<svg xmlns="http://www.w3.org/2000/svg" viewBox="0 0 150 72">
<!-- SVG created with Arrow, by QuiverAI (https://quiver.ai) -->
  <style type="text/css">.cls-0 {fill:#686E79;}
.cls-1 {fill:#252E38;}
.cls-2 {fill:#707780;}
.cls-3 {fill:#CACCCE;}
.cls-4 {fill:#404852;}
.cls-5 {fill:#01E0FF;}
.cls-6 {fill:#00B8E0;}
.cls-7 {fill:#00F3FF;}
.cls-8 {fill:#BEC0C2;}
.cls-9 {fill:#00C9F2;}
.cls-10 {fill:#D2EEF9;}
.cls-11 {fill:#8D949C;}
.cls-12 {fill:#474F59;}
.cls-13 {fill:none;stroke:#252E38;stroke-width:1.5;stroke-miterlimit:10;}
.cls-14 {fill:none;stroke:#252E38;stroke-width:1.2;stroke-miterlimit:10;}
.cls-15 {fill:#707780;stroke:#252E38;stroke-width:1.2;stroke-miterlimit:10;}
.cls-16 {fill:none;stroke:#252E38;stroke-width:0.9;stroke-miterlimit:10;}</style>
  <rect class="cls-0" width="150" height="72.3"/>
  <path class="cls-1" d="m124.5 3.8c-1.2-0.9-2.9-1.8-6.2-1.8-2.2 0-4.5 1.6-5.9 5l-12.4 14.5c-1.7 0.7-3.7 1.5-5.4 1.5-3.6 0-15.2-3-24.7-3.6-10.1-0.6-16.2 1.8-23.8 8.1-6.4 2.8-14.9 6-22.2 9.5-8.6 4.2-20.6 11.6-20.6 11.6l-1.4 3.8c3.9 0.2 7.6 0.2 11.7-0.6 2-0.3 3.5-1.2 5.3-2l17.7-8c-1.9 4.5-3.7 6.4-9.2 9.4l-8.7 18.9h13.1c-0.4-1.8-1.8-4.2-3.7-4.9 1-1.6 4.9-6.6 4.9-6.6 3.4-0.8 14.7-3 18.3-4.6l-2.8 3c1.4 2.5 6.7 7.6 9 10.2h13.9c-1.1-2.6-3.1-5-7.1-5h-2.7c-0.8-0.5-3.2-3.4-3.2-3.9 3.2-1.4 9.4-4.7 12.2-8 6.4-0.1 13.8 0.3 21.4 2.2 3.6 5.6 10.6 12.5 13.6 15.4l0.1 0.1h13c-0.5-2.7-3-5.2-8.5-5.2-1-1.9-3.3-9.8-3.6-11.2l1.5-0.6c1.8 2.8 7.1 7.6 11.4 10.3h10.5c-0.8-4.5-3.9-4.7-6.8-5-2.3-0.7-5.7-7.7-5.9-15.7l7.7-9.1 7.3-3.3c2.3 0.1 4.6 0 7.3-0.2 2-0.1 3.4-1.1 4.3-2.1 1.7-0.4 4.4-3.4 4.2-5.4-0.2-1.6-2.4-2.6-4.2-4.9-2.3-3-3.3-5.6-6.3-8.4-0.9-0.7-1-1.7-1.2-2.2-0.5-1.1-1-3-2.3-3-0.7-0.1-3.2 1.4-3.5 1.8-0.4 0.4-3.3 0-6.1 0.2"/>
  <path class="cls-2" d="m97.6 24.4-2.2 2.8c-3 3.7-7.4 9.1-7.5 12.4-0.3 4.9 1.6 7.9 1.6 7.9-2.8-1.6-7.1-4.3-12.1-4.5-6.5-0.4-12.2 2.4-18.8 4.4 1.5-1.9 4.3-4.2 4.8-7l16-8.5c6.7-3.4 12.7-7.4 15-7.5h3.2z"/>
  <path class="cls-3" d="m45.2 30.2c3.5-3.6 9.9-9.4 20.4-9.5 7.5-0.1 16.3 1.8 25.1 3.3-1.3 0.5-2.8 1.2-4.1 2-4.2-0.5-13.2-2.4-19.7-2.5-7.5 0-12.8 2-16.8 5.1l-4.9 1.6z"/>
  <path class="cls-3" d="m88.7 26.4 4.7 0.7 2 0.1 2.2-2.8h-3.2c-1 0-3 0.7-5.7 2z"/>
  <path class="cls-2" d="m92.4 33.5 18.3-21.6 1.1-0.2-0.9 3.4c-1.7 7.5-4.7 16.5-5 18.5l-3.7 6.4c-1.3-2.1-3.2-4.1-6.6-4.2-3.1 0-4.9 1.1-6 2.8l2.8-5.1z"/>
  <path class="cls-3" d="m92.4 33.5 18.3-21.6 0.9-0.2-1.2 3.4-18 18.4z"/>
  <path class="cls-4" d="m105.1 46.4c-0.2-10.9 3.5-20.4 6-31.5 1 3.1 3.3 6.1 5.8 8.1-3.5 4.5-9.2 11.2-10.3 15.6l-1.5 7.8z"/>
  <path class="cls-2" d="m125.6 5.2c2-0.2 8-0.2 10.8 1.8 3 2.2 5 6.6 6.8 9.6l-5.3 0.8-1.8-0.5-2-3-8.5-8.7z"/>
  <path class="cls-3" d="m127.4 7c3.2 0.1 7 0.6 8.7 1.6l4.6 4c-1.1-2-3.1-4.6-4.6-5.6-2.2-1.4-6.9-2.1-10.5-1.9l1.8 1.9z"/>
  <path class="cls-4" d="m138.1 18.4c-1.5 0.3-3 1.1-3 3.8l-0.5 4.3-10-0.6c-3.7-0.5-11.7-6.4-12-12.8-0.2-2.7 2.3-9.2 5.5-9.6 3.6-0.3 5.3 1 7.5 2.9l7 6.2-3.2 1.3-2.5-0.1 1.5 1.6 0.7 2.6 1.5 1.1 3.1-0.5 1.9-0.4-1.7 2.3 0.7 1.9 3.5-4z"/>
  <path class="cls-3" d="m138.1 18.4 4 1.6 4-0.4-2-1.9c-1.7-0.1-3.7 0-6 0.7z"/>
  <path class="cls-2" d="m134.9 21.9c2.7 0.6 7.8 0.3 8.7 0.3l0.5 1.3c-0.7 1-6 1.9-7 1.5-0.9 0-2.7-0.6-2.1-2.4l-0.1-0.7z"/>
  <path class="cls-1" d="m116.7 5.5c-0.8 1.1-2.6 4-2.6 7 0 1.9 2.3 5.1 2.3 5.1 0.5-3.2 3.5-4.7 3.5-4.7-0.8-0.9-2.5-1.8-2.5-1.8 1.5-1.1 2.3-1.5 2.3-1.5l-0.8-1.6c3.3-1.6 6.5 0.4 6.5 0.4-3.7-4.4-6.7-4-8.7-2.9z"/>
  <path class="cls-3" d="m115.1 5.9c1-1.2 2.1-2.4 3.5-2.4 2.6 0 4 1 6 2.4l1 1c-2.5-1.4-4.2-3-6.9-2.8-2.1 0-3.1 0.9-3.6 1.8z"/>
  <path class="cls-4" d="m118.4 20.9c4.2 1.1 12.2 2 15.7 1.6l0.5 4c-2 0.1-9.2-0.1-11.5-1-1.7-1-3.9-3.1-4.7-4.6z"/>
  <path class="cls-8" d="m128.1 15.1c0.1 2.8 1.6 4 3.5 3.5l4-0.4c-1.5 0.8-2.2 1.7-2.2 3.8-0.5-2 2.2-3.6 2.2-3.6-1.7-0.4-3.7 1.2-5.2 1.5-1.8 0.2-2.7-2.9-2.3-4.8z"/>
  <path class="cls-1" d="m126.9 13.9 1.8 1.6c0.2 2 1.4 3.5 3.4 3.1l3.8-0.6 1-0.9-0.8-0.2-1.2-1.4-0.8-1.6-1.5-1.3-3.2 1-1.5 0.3h-1z"/>
  <path class="cls-9" d="m133.7 16c0 1-0.8 2-1.8 2s-1.3-0.9-1.3-1.9c0-1.2 0.8-2 1.8-2s1.3 1 1.3 1.9z"/>
  <path class="cls-10" d="m133.6 15.5c0 0.4-0.2 0.6-0.5 0.6-0.4 0-0.5-0.4-0.5-0.7 0-0.4 0.3-0.8 0.5-0.8 0.3 0 0.5 0.5 0.5 0.9z"/>
  <path class="cls-3" d="m132.6 4 3 1c-0.2-0.5-0.7-1.8-1.2-1.8s-1.5 0.7-1.8 0.8z"/>
  <path class="cls-4" d="m132.9 11.6c2 0.8 3.2 5.3 5.2 5.3l2.5-0.3c-1.5-1.1-4.7-4.2-7.7-5z"/>
  <path class="cls-1" d="m137.9 17.4 6-0.3 2.2 2.5c-1.4 0-3.5-0.4-3.7 1.3 0 1.1 2.2 2.2 1.7 3-0.5 0.6-3.5 2-6 2-1.7 0-3.2-0.4-3.5-0.8-0.5-0.6-1-3-0.2-4.5 0.7-1.5 3-2.6 3.5-3.2z"/>
  <path class="cls-3" d="m5.5 48.9c3.9-2.5 15.7-9 28.4-14.4l9-4.4-1.5 2.3-34.5 16.6-1.4-0.1z"/>
  <path class="cls-4" d="m6.9 49c2 0 3.7 0.2 6-0.5l25.8-11.6 2.7-4.5-34.5 16.6z"/>
  <path class="cls-2" d="m34.9 47.6c1.8-3.1 5.7-11.2 8.2-15 1.8-0.7 8.6-3.1 11.5-3.2 3-0.2 6 0.7 7.5 5.2 0.6 2.3 0 6.3-1 7.8-1.9 2.6-6.7 8.1-10.2 10.1-2.5 1.1-15.8 4-16 4l1-2.6-1-2.4-2.3-2 2.3-1.9z"/>
  <path class="cls-3" d="m35.6 46 8-11.6c2.5-0.5 7.6-2.9 11-3 3.3-0.3 5.8 2.2 5.8 6.1l1.7-2.5c-0.5-2.9-3.2-5.8-7.5-5.5-3.5 0.1-8.7 2-11.5 3.1-1.7 2.5-6.4 11-7.5 13.4z"/>
  <path class="cls-4" d="m33 49 15.1-3.1c3.3-0.9 8.6-5.3 12.3-8.4 0 1.5 0 2-1.3 3.5-1.9 2.4-6.7 7.6-10 9-3 1.1-11.7 4-13.7 4.4l0.2-1.9-1.5-2-1.5-0.9 0.4-0.6z"/>
  <path class="cls-4" d="m22.4 65.1 5.7-12.6 2.8-2c1.8-0.1 3.7 0.9 3.7 3.1 0 1.3-0.5 1.9-1.2 2.8l-6.8 8.1c-1.2 0-2.7-0.1-4.2 0.6z"/>
  <path class="cls-2" d="m23.4 64.4 6-9.9-1.3-2-5.7 12.5 1-0.6z"/>
  <path class="cls-5" d="m57.2 49.9c2.9-1.4 12.7-5.5 19.5-5.5 5.4 0 12.5 4.2 14.4 6.5-5.2-1.3-15.9-2.8-33.9-1z"/>
  <path class="cls-6" d="m66.1 46.5c5.8 0 15 0.1 20.3 0.9l4.7 3.5c-5.4-1.3-16.5-2.8-34-1 1.6-0.8 6.5-2.5 9-3.4z"/>
  <path class="cls-2" d="m89.9 42c0.7-3 3-4.6 6-4.6 2.2 0 4.2 1.5 5.5 4.1 2 4.5 6 18.6 7.2 21.4h-6.5c-3.5-3.4-8.4-9.3-10.4-13.4-1.6-2.6-2.1-5.9-1.8-7.5z"/>
  <path class="cls-11" d="m91.1 39c0.8-1 3-1.6 5-1.4-1.7 0.4-3 1.5-3 2.3l-2-0.9z"/>
  <path class="cls-4" d="m92.1 39.5c2.8-1.1 5.5-0.6 7.1 3.1 2.4 6 7.2 17.8 8.4 20.3h-5.2c-2.8-2.8-7.7-8.8-9.5-12.4-2.8-4.9-3-8.9-0.8-11z"/>
  <path class="cls-3" d="m95.9 37.5c1.7 0 4 1.1 5.5 4.1l7.2 21.4h-0.5l-9.4-21.1c-1-1.9-2.8-2.9-5.3-2.5 0.7-1.4 2-1.9 2.5-1.9z"/>
  <path class="cls-5" d="m118.1 24c-2.5 3.1-8.9 10.4-10 14.5-1 4.4-1.4 10-1.4 11.9l17.4-20 5.3-2.5-6.8-1.3-4.5-2.6z"/>
  <path class="cls-6" d="m116.9 25.5 4.2 4.1-11.4 13.4 1.4-10 5.8-7.5z"/>
  <path class="cls-6" d="m117.4 25.1 1.7-1.6 3.8 2.4 6.5 1.7-5 2-17.7 20 0.2-2.1 16.5-17.4h-0.5l-5.5-5z"/>
  <path class="cls-4" d="m63.2 33.9 8.7 0.2-8.3 4.5-0.4-4.7z"/>
  <path class="cls-4" d="m66.4 38.6 17.8 1.3c1.7 0.1 3.2-1 4.4-2.3l-0.5 4.4 1.3 5.6c-2-1.1-6.7-4.2-12.5-4.5-4.8-0.1-10 1.3-18.3 4.3 1.5-1.9 4.5-4.5 4.8-7l3-1.8z"/>
  <path class="cls-3" d="m92.4 33.5"/>
  <path class="cls-1" d="m134.4 24.4c1.2 1 4.8 1 8.7 0.2l-1.5 1.8-2.7 0.7h-4.8l0.3-2.7z"/>
  <path class="cls-4" d="m99.7 40"/>
  <path class="cls-13" d="m53.6 33.6"/>
  <circle class="cls-14" cx="54.7" cy="35.9" r="2.9"/>
  <circle class="cls-15" cx="31.1" cy="53.9" r="1.6"/>
  <circle class="cls-16" cx="95.2" cy="42.5" r="2.5"/>
  <path class="cls-13" d="m43.1 32c4-1.1 8.1-3.4 12.3-3.4 5.2 0 8 4 7.6 9.3-0.1 2.7-1.1 4.6-3 6.6-2.1 2.5-6.4 7-8.9 8.5-2.5 1.1-13.5 3.5-17.5 4.1"/>
  <path class="cls-13" d="m89.1 37.5c1-2.4 4.3-1 6.5-1 2.6 0 5.1 1.6 6.8 5 2 4.5 5 16.4 7.3 21.5"/>
  <path class="cls-13" d="m63.1 39.9c4.6-2.8 22-12 27.3-14.5"/>
</svg>
